<svg xmlns="http://www.w3.org/2000/svg" viewBox="0 0 500 130.56">
<style>.st1{fill:#E597A2;}</style>
<path class="st1" d="M437.31,18.73c-4.2,1.8-8.5,3.3-12.8,4.8c-4.3,1.4-8.7,2.8-13.1,3.8c-8.8,2.2-17.8,3.6-26.9,4.1c-9.1,0.4-18.2,0-27.2-1s-18-2.8-26.8-4.8c-8.8-2.2-17.5-4.6-26.2-7.4c-15.98-5.08-31.69-11.01-47.31-17.09c-0.33-0.06-0.65-0.15-0.94-0.26c-0.65-0.11-1.23-0.32-1.72-0.62c-0.09,0.03-0.18,0.05-0.28,0.08c-0.07,0.03-0.14,0.05-0.22,0.07c-0.01,0-0.02,0.01-0.02,0.01c-0.05,0.02-0.09,0.04-0.14,0.06c-0.25,0.13-0.51,0.26-0.81,0.35c-0.18,0.09-0.36,0.17-0.56,0.23c-7.87,3.04-15.75,5.99-23.71,8.67c-8.6,3-17.2,5.7-26,8.1c-8.7,2.4-17.6,4.5-26.5,6.2c-8.9,1.7-17.9,2.9-26.9,4.3l-6.7,1l-6.8,0.8c-1.1,0.2-2.3,0.3-3.4,0.4l-3.4,0.2c-2.3,0.1-4.5,0.4-6.8,0.4c-9.1,0.4-18.2,0.2-27.2-1c-5.93-0.79-11.81-2.03-17.48-3.89c5.68,1.88,11.58,3.14,17.48,3.99c9.1,1.2,18.2,1.5,27.3,1.1c2.3,0,4.5-0.3,6.8-0.4l3.4-0.2c1.1-0.1,2.3-0.2,3.4-0.3l6.8-0.7l6.8-0.9c9-1.3,18-2.4,27-4.1c8.9-1.6,17.8-3.6,26.6-6c8.8-2.3,17.5-5,26.1-7.9c8.56-2.79,17.11-5.97,25.57-9.15c16.35,6.24,32.7,12.36,49.43,17.55c8.7,2.7,17.4,5.1,26.3,7.2c8.9,2,17.8,3.7,26.9,4.7c9.1,0.9,18.2,1.3,27.3,0.8c9-0.5,18.1-2,26.9-4.2c4.4-1.1,8.8-2.5,13.1-3.9c4.3-1.5,8.5-3.1,12.7-4.9c8.4-3.5,16.5-7.7,24.6-11.9C453.81,11.13,445.71,15.23,437.31,18.73z"/>
<path class="st1" d="M57.11,15.63c-1.9-1.3-3.7-2.7-5.3-4.3c-1-0.61-1.9-1.44-2.75-2.36c0.83,0.94,1.71,1.83,2.65,2.66c1.7,1.5,3.5,2.9,5.4,4.2c3.7,2.6,7.6,5.1,11.7,7c2.8,1.33,5.68,2.45,8.62,3.41c-2.98-0.99-5.9-2.14-8.72-3.51C64.61,20.73,60.81,18.23,57.11,15.63z"/>
<path class="st1" d="M451.33,118.97c-1.7-1.5-3.5-2.9-5.4-4.2c-3.7-2.6-7.6-5.1-11.7-7c-8.2-3.9-17.1-6.1-26.1-7.3c-9-1.2-18.1-1.4-27.2-1c-2.3,0-4.5,0.3-6.8,0.4l-3.4,0.2c-1.1,0.1-2.3,0.2-3.4,0.4l-6.8,0.8l-3.91,0.58l4.41-0.58l6.8-0.7c1.1-0.1,2.3-0.2,3.4-0.3l3.4-0.2c2.3-0.1,4.5-0.4,6.8-0.4c9.1-0.4,18.2-0.1,27.3,1.1c9,1.3,18,3.5,26.2,7.5c4.1,2,7.9,4.5,11.6,7.1c1.9,1.3,3.7,2.7,5.3,4.3c0.7,0.47,1.51,1.25,2.34,2.18C453.28,120.83,452.34,119.86,451.33,118.97z"/>
<path class="st1" d="M354.23,102.17c-9,1.3-18,2.4-27,4.1c-8.9,1.6-17.8,3.6-26.6,6c-8.8,2.3-17.5,5-26.1,7.9c-8.48,2.76-16.96,5.91-25.34,9.07c-16.62-6.35-33.25-12.59-50.26-17.87c-8.7-2.7-17.4-5.1-26.3-7.2c-8.9-2-17.8-3.7-26.9-4.7c-9.1-0.9-18.2-1.3-27.3-0.8c-9.1,0.5-18.1,2-26.9,4.2c-4.4,1.1-8.8,2.5-13.1,3.9c-4.3,1.5-8.5,3.1-12.7,4.9c-8.4,3.5-16.5,7.7-24.6,11.9c8.1-4.1,16.2-8.2,24.6-11.7c4.2-1.8,8.5-3.3,12.8-4.8c4.3-1.4,8.7-2.8,13.1-3.8c8.8-2.2,17.8-3.6,26.9-4.1c9.1-0.4,18.2,0,27.2,1s18,2.8,26.8,4.8c8.8,2.2,17.5,4.6,26.2,7.4c16.32,5.19,32.37,11.27,48.33,17.48c0.59,0.1,1.12,0.28,1.58,0.54c0.49-0.33,1.07-0.59,1.74-0.71c-0.01,0-0.02-0.01-0.02-0.01c7.99-3.09,15.99-6.09,24.07-8.81c8.6-3,17.2-5.7,26-8.1c8.7-2.4,17.6-4.5,26.5-6.2c8.9-1.7,17.9-2.9,26.9-4.3l2.79-0.42L354.23,102.17z"/>
<path class="st1" d="M78.11,63.45c5.61-0.68,11.84-3.18,11.84-9.84c0-8.78-9.97-10.4-18-10.4H58.12v0.75h0.12c3.18,0,3.92,1.43,3.92,4.55v38.32h13.21c8.1,0,17.76-2.93,17.76-11.71C93.13,67.5,85.46,63.77,78.11,63.45z M65.9,43.95h6.04c10.22,0,13.83,4.11,13.83,9.66c0,5.48-3.61,9.66-13.83,9.66H65.9V43.95z M75.37,86.07H65.9V64.01h9.47c10.28,0,13.58,5.61,13.58,11.09C88.95,80.65,85.65,86.07,75.37,86.07z M125.15,81.83v0.12c0,3.24-1.43,3.92-4.55,3.92h-15.95V62.21h15.89v-1h-15.89V44.14h15.2c3.11,0,4.49,0.75,4.49,3.92v0.12h0.81v-3.68c0-0.93-0.62-1.31-1.37-1.31H96.87v0.75h0.12c3.24,0,3.92,1.43,3.92,4.55v38.32h23.61c0.75,0,1.37-0.37,1.37-1.31v-3.68H125.15z M148.25,45.14c-0.37-1.18-1-1.93-2.74-1.93h-5.05v0.75h0.12c3.61,0,3.99,1.56,4.86,4.42v0.06c-5.29,5.98-13.33,19.56-13.33,31.96c0,2.18,0.25,4.36,0.75,6.42h0.62l18.57-19.62l6.92,19.62h3.99L148.25,45.14z M137.78,80.71c-0.44-2.24-0.62-4.49-0.62-6.6c0-9.91,4.92-19.87,8.6-24.86l5.98,16.95L137.78,80.71z M199.15,43.21v29.03c0,6.98-4.3,13.39-11.96,14.02c-9.03,0.75-14.58-5.23-14.58-15.51V44.58c0-0.75-0.37-1.37-1.31-1.37h-6.48v0.75h0.06c3.24,0,3.99,1.43,3.99,4.55l-0.06,22.24c0,11.34,7.41,16.51,16.7,16.51c8.78,0,14.58-6.36,14.58-15.01V43.21H199.15z M239.21,43.21h-32.21c-0.75,0-1.31,0.37-1.31,1.31v3.68h0.75v-0.12c0-3.18,1.43-3.92,4.55-3.92h10.22v42.68h3.8V44.14h10.28c3.12,0,4.49,0.75,4.49,3.92v0.12h0.75v-3.68C240.52,43.58,239.96,43.21,239.21,43.21z M263.97,68.5l13.83-25.29h-1.06l-13.52,24.61L250.7,44.95c-0.56-1.06-1.12-1.74-2.93-1.74h-4.8v0.75h0.12c2.43,0,3.18,0.87,4.3,2.87l12.77,23.3v16.7h3.8V68.5z M308.56,43.21h-26.98v0.75h0.12c3.24,0,3.92,1.43,3.92,4.55v38.32h3.8V62.21h15.89v-1h-15.89V44.14h15.14c3.12,0,4.55,0.75,4.55,3.92v0.12h0.75v-3.68C309.86,43.58,309.24,43.21,308.56,43.21z M343.08,81.83v0.12c0,3.24-1.37,3.92-4.49,3.92h-15.95V44.51c0-0.68-0.37-1.31-1.31-1.31h-6.48v0.75h0.06c3.24,0,3.93,1.43,3.93,4.55v38.32h23.67c0.75,0,1.31-0.37,1.31-1.31v-3.68H343.08z M367.01,42.77c-12.58,0-21.31,9.91-21.31,22.24c0,12.33,8.72,22.24,21.31,22.24c12.58,0,21.31-9.91,21.31-22.24C388.32,52.68,379.6,42.77,367.01,42.77z M367.01,86.5c-10.78,0-17.13-9.41-17.13-21.49c0-12.09,6.36-21.43,17.13-21.43c10.78,0,17.19,9.34,17.19,21.43C384.21,77.1,377.79,86.5,367.01,86.5z M441.89,41.77h-0.5l-4.61,4.74c0.62,2.3,0.93,5.79,0.93,7.97c0,9.91-4.8,23.11-8.54,28.03l-13.77-39.31h-4.05l5.67,16.14l-7.6,21.74l-12.65-35.95c-0.37-1.12-0.93-1.93-2.74-1.93h-5.11v0.75h0.12c2.99,0,3.68,1.06,4.86,4.42l13.52,38.44h1l9.1-26.04l9.16,26.04h0.87c5.3-5.92,15.08-26.23,15.08-38.63C442.64,46.01,442.39,43.83,441.89,41.77z"/>
</svg>